<svg width="79" height="45" viewBox="0 0 79 45" fill="none" xmlns="http://www.w3.org/2000/svg">
<path d="M39.5 45C38.8232 45.0009 38.153 44.867 37.5277 44.606C36.9024 44.345 36.3345 43.9621 35.8566 43.4792L1.50659 8.86182C0.541422 7.88777 -0.000478443 6.56736 3.16962e-07 5.19082C0.000479077 3.81428 0.543298 2.49425 1.50915 1.52089C2.47499 0.547527 3.78483 0.000482805 5.15074 3.1943e-07C6.51665 -0.000482166 7.82687 0.545634 8.79339 1.51832L39.5 32.4639L70.2066 1.51832C71.1731 0.545634 72.4833 -0.000482166 73.8493 3.1943e-07C75.2152 0.000482805 76.525 0.547527 77.4909 1.52089C78.4567 2.49425 78.9995 3.81428 79 5.19082C79.0005 6.56736 78.4586 7.88777 77.4934 8.86182L43.1434 43.4792C42.6655 43.9621 42.0976 44.345 41.4723 44.606C40.847 44.867 40.1768 45.0009 39.5 45Z" fill="#333333"/>
</svg>
